<svg width="80" height="80" version="1.1" id="Layer_1" xmlns="http://www.w3.org/2000/svg" xmlns:xlink="http://www.w3.org/1999/xlink" x="0px" y="0px"
	 viewBox="0 0 512 512" style="enable-background:new 0 0 512 512;" xml:space="preserve">
<g>
	<path style="fill:#346639;" d="M290.296,133.424c0,0-29.944-72.149,14.479-133.424c0,0-93.484,37.782-46.72,158.804
		L290.296,133.424z"/>
	<path style="fill:#346639;" d="M219.69,133.424c0,0,29.944-72.149-14.479-133.424c0,0,93.484,37.782,46.72,158.804L219.69,133.424z
		"/>
</g>
<path style="fill:#428249;" d="M218,144.072c0,0,7.311-77.77-53.222-123.2c0,0,100.471,8.498,91.52,137.932L218,144.072z"/>
<path style="fill:#56995D;" d="M205.386,155.985c0,0-0.44-78.112-65.179-117.315c0,0,100.818-1.508,104.747,128.176L205.386,155.985
	z"/>
<path style="fill:#428249;" d="M291.986,144.072c0,0-7.311-77.77,53.222-123.2c0,0-100.471,8.498-91.52,137.932L291.986,144.072z"/>
<path style="fill:#56995D;" d="M304.6,155.985c0,0,0.44-78.112,65.179-117.315c0,0-100.818-1.508-104.747,128.176L304.6,155.985z"/>
<path style="fill:#5DA665;" d="M229.643,150.723c0,0,0.802-20.083-13.652-39.588c-0.726-0.979-1.49-1.956-2.292-2.93
	c0,0,15.764-24.386,19.749-49.604c0,0,14.909,30.427,27.288,46.062c0,0-10.934,39.292-1.083,51.092L229.643,150.723z"/>
<path style="fill:#6EB576;" d="M280.414,150.723c0,0-0.802-20.083,13.652-39.588c0.726-0.979,1.49-1.956,2.292-2.93
	c0,0-15.764-24.386-19.749-49.604c0,0-14.909,30.427-27.288,46.062c0,0,10.934,39.292,1.083,51.092L280.414,150.723z"/>
<g>
	<path style="fill:#7FC788;" d="M231.763,201.886c0,0-3.582-21.603-23.321-39.219c-0.994-0.885-2.021-1.758-3.094-2.618
		c0,0,11.428-29.504,10.099-57.29c0,0,22.633,29.168,39.295,43.108c0,0-2.978,44.342,10.145,54.75L231.763,201.886z"/>
	<path style="fill:#7FC788;" d="M279.743,202.592c0,0,3.582-21.603,23.321-39.219c0.994-0.885,2.021-1.758,3.094-2.618
		c0,0-11.428-29.504-10.099-57.29c0,0-22.633,29.168-39.295,43.108c0,0,2.978,44.342-10.145,54.75L279.743,202.592z"/>
</g>
<path style="fill:#B0754C;" d="M390.673,335.547C390.673,469.793,330.377,512,256,512s-134.673-42.209-134.673-176.453
	c0-134.248,60.296-192.561,134.673-192.561S390.673,201.297,390.673,335.547z"/>
<path style="fill:#AB7046;" d="M356.593,196.386c-14.707-21.757-33.4-36.565-54.593-44.957
	c-6.935,5.826-11.663,14.195-12.675,23.698c-1.89-17.788-16.743-31.682-34.936-32.102c-1.184,0.015-2.365,0.046-3.539,0.089
	c-17.338,1.285-31.255,14.833-33.079,32.014c-0.931-8.756-5.017-16.553-11.079-22.286c-21.016,9.103-39.447,24.667-53.753,47.312
	c6.547,8.964,17.105,14.81,29.051,14.81c18.577,0,33.858-14.077,35.781-32.143c1.92,18.066,17.201,32.143,35.778,32.143
	s33.858-14.077,35.778-32.143c1.923,18.066,17.204,32.143,35.781,32.143C338.66,214.966,350.455,207.459,356.593,196.386z"/>
<path style="fill:#9E643E;" d="M378.353,243.076c-8.169-26.435-20.072-47.302-34.711-62.985
	c-10.6,5.427-18.165,15.946-19.435,28.343c-1.857-18.135-17.176-32.282-35.799-32.282c-18.577,0-33.858,14.077-35.781,32.143
	c-1.92-18.066-17.201-32.143-35.778-32.143s-33.858,14.077-35.778,32.143c-1.126-10.585-6.859-19.774-15.132-25.59
	c-14.044,15.926-25.39,36.876-33.137,63.155c3.896,1.442,8.091,2.272,12.49,2.272c18.577,0,33.858-14.077,35.781-32.143
	c1.92,18.066,17.201,32.143,35.778,32.143s33.858-14.077,35.778-32.143c1.923,18.066,17.204,32.143,35.781,32.143
	c18.623,0,33.942-14.147,35.799-32.282c1.857,18.135,17.176,32.282,35.799,32.282C366.715,248.131,372.979,246.274,378.353,243.076z
	"/>
<path style="fill:#B0754C;" d="M370.672,222.199c-5.948,5.713-9.955,13.431-10.876,22.084c-1.92-18.066-17.201-32.143-35.778-32.143
	s-33.858,14.077-35.778,32.143c-1.923-18.066-17.204-32.143-35.781-32.143c-18.623,0-33.942,14.147-35.799,32.282
	c-1.857-18.135-17.176-32.282-35.799-32.282c-18.577,0-33.858,14.077-35.781,32.143c-0.645-6.059-2.816-11.648-6.084-16.424
	c-6.077,15.293-10.752,32.765-13.758,52.542c10.788-5.341,18.512-15.921,19.842-28.421c1.923,18.066,17.204,32.143,35.781,32.143
	c18.623,0,33.942-14.147,35.799-32.282c1.857,18.135,17.176,32.282,35.799,32.282c18.577,0,33.858-14.077,35.781-32.143
	c1.92,18.066,17.201,32.143,35.778,32.143s33.858-14.077,35.778-32.143c1.622,15.233,12.756,27.596,27.344,31.111
	C383.799,259.713,378.191,239.453,370.672,222.199z"/>
<path style="fill:#AB7046;" d="M381.814,255.498c-6.052-4.62-13.603-7.367-21.806-7.367c-18.623,0-33.942,14.147-35.798,32.282
	c-1.857-18.135-17.176-32.282-35.799-32.282c-18.577,0-33.858,14.077-35.781,32.143c-1.92-18.066-17.201-32.143-35.778-32.143
	s-33.858,14.077-35.778,32.143c-1.923-18.066-17.204-32.143-35.781-32.143c-4.938,0-9.647,0.999-13.932,2.796
	c-4.812,17.828-8.038,37.974-9.353,60.605c6.277,5.341,14.398,8.579,23.285,8.579c18.577,0,33.858-14.077,35.781-32.143
	c1.92,18.066,17.201,32.143,35.778,32.143s33.858-14.077,35.778-32.143c1.923,18.066,17.204,32.143,35.781,32.143
	c18.623,0,33.942-14.147,35.799-32.282c1.857,18.135,17.176,32.282,35.798,32.282c12.215,0,22.977-6.112,29.479-15.417
	C388.103,286.702,385.505,270.318,381.814,255.498z"/>
<path style="fill:#9E643E;" d="M359.796,316.262c-1.92-18.066-17.201-32.143-35.778-32.143s-33.858,14.077-35.778,32.143
	c-1.923-18.066-17.204-32.143-35.781-32.143c-18.623,0-33.942,14.147-35.799,32.282c-1.857-18.135-17.176-32.282-35.799-32.282
	c-18.577,0-33.858,14.077-35.781,32.143c-1.369-12.872-9.54-23.688-20.831-28.861c-1.905,14.818-2.925,30.837-2.925,48.147
	c0,6.325,0.175,12.384,0.44,18.307c12.576-4.645,21.851-16.098,23.318-29.899c1.923,18.066,17.204,32.143,35.781,32.143
	c18.623,0,33.942-14.147,35.799-32.282c1.857,18.135,17.176,32.282,35.799,32.282c18.577,0,33.858-14.077,35.781-32.143
	c1.92,18.066,17.201,32.143,35.778,32.143s33.858-14.077,35.778-32.143c1.733,16.273,14.309,29.266,30.359,31.698
	c0.319-6.479,0.519-13.138,0.519-20.105c0-18.223-1.146-34.994-3.251-50.46C372.693,288.506,361.425,300.928,359.796,316.262z"/>
<path style="fill:#B0754C;" d="M362.219,320.11c-18.623,0-33.942,14.147-35.799,32.282c-1.857-18.135-17.176-32.282-35.799-32.282
	c-18.577,0-33.858,14.077-35.781,32.143c-1.92-18.066-17.201-32.143-35.778-32.143s-33.858,14.077-35.778,32.143
	c-1.923-18.066-17.204-32.143-35.781-32.143c-10.297,0-19.561,4.349-26.122,11.281c-0.015,1.394-0.058,2.747-0.058,4.157
	c0,17.581,1.06,33.547,3.023,48.084c6.262,5.272,14.332,8.46,23.156,8.46c18.577,0,33.858-14.077,35.781-32.143
	c1.92,18.066,17.201,32.143,35.778,32.143s33.858-14.077,35.778-32.143c1.923,18.066,17.204,32.143,35.781,32.143
	c18.623,0,33.942-14.147,35.799-32.282c1.857,18.135,17.176,32.282,35.799,32.282c10.117,0,19.238-4.2,25.775-10.919
	c1.753-13.869,2.682-29.041,2.682-45.622c0-0.509-0.02-0.994-0.023-1.498C384.07,325.572,373.786,320.11,362.219,320.11z"/>
<path style="fill:#AB7046;" d="M362.007,388.241c-1.92-18.066-17.201-32.143-35.778-32.143c-18.577,0-33.858,14.077-35.778,32.143
	c-1.923-18.066-17.204-32.143-35.781-32.143c-18.623,0-33.942,14.147-35.799,32.282c-1.857-18.135-17.176-32.282-35.799-32.282
	c-18.577,0-33.858,14.077-35.781,32.143c-1.543-14.537-11.754-26.481-25.36-30.597c1.338,24.626,4.959,45.731,10.492,63.704
	c8.134-5.826,13.758-14.937,14.868-25.413c1.923,18.066,17.204,32.143,35.781,32.143c18.623,0,33.942-14.147,35.799-32.282
	c1.857,18.135,17.176,32.282,35.799,32.282c18.577,0,33.858-14.077,35.781-32.143c1.92,18.066,17.201,32.143,35.778,32.143
	c18.577,0,33.858-14.077,35.778-32.143c1.212,11.405,7.757,21.208,17.087,26.896c5.852-18.456,9.654-40.261,11.005-65.877
	C375.142,360.214,363.654,372.745,362.007,388.241z"/>
<path style="fill:#9E643E;" d="M384.839,400.486c-6.244-5.222-14.264-8.394-23.043-8.394c-18.577,0-33.858,14.077-35.778,32.143
	c-1.923-18.066-17.204-32.143-35.781-32.143c-18.623,0-33.942,14.147-35.799,32.282c-1.857-18.135-17.176-32.282-35.799-32.282
	c-18.577,0-33.858,14.077-35.781,32.143c-1.92-18.066-17.201-32.143-35.778-32.143c-7.547,0-14.527,2.353-20.31,6.32
	c5.242,27.202,14.082,48.661,25.719,65.214c16.057-2.426,28.639-15.428,30.369-31.698c1.923,18.066,17.204,32.143,35.781,32.143
	c18.623,0,33.942-14.147,35.799-32.282c1.857,18.135,17.176,32.282,35.799,32.282c18.577,0,33.858-14.077,35.781-32.143
	c1.832,17.236,15.835,30.81,33.251,32.024C370.725,447.762,379.516,426.896,384.839,400.486z"/>
<path style="fill:#B0754C;" d="M361.615,460.468c-1.806-18.185-17.145-32.391-35.806-32.391c-18.577,0-33.858,14.077-35.781,32.143
	c-1.92-18.066-17.201-32.143-35.778-32.143s-33.858,14.077-35.778,32.143c-1.923-18.066-17.204-32.143-35.781-32.143
	c-17.14,0-31.452,11.997-35.075,28.042c11.929,19.84,27.379,33.59,45.22,42.485c13.748-4.033,24.08-16.05,25.636-30.691
	c1.92,18.066,17.201,32.143,35.778,32.143s33.858-14.077,35.778-32.143c1.642,15.445,13.062,27.943,27.948,31.255
	C334.962,490.951,349.823,478.385,361.615,460.468z"/>
<g>
	<path style="fill:#9E643E;" d="M252.807,511.942c1.065,0.02,2.123,0.058,3.193,0.058c42.548,0,80.464-13.856,105.146-50.811
		c-1.351-0.159-2.717-0.263-4.111-0.263c-18.577,0-33.858,14.077-35.778,32.143c-1.923-18.066-17.204-32.143-35.781-32.143
		c-18.623,0-33.942,14.147-35.799,32.282c-1.857-18.135-17.176-32.282-35.799-32.282c-17.52,0-32.095,12.521-35.31,29.099
		c19.513,13.884,42.832,20.447,68.073,21.712L252.807,511.942z"/>
	<path style="fill:#9E643E;" d="M151.468,462.133c7.534,11.058,16.28,19.997,25.987,27.093
		C174.582,476.022,164.465,465.543,151.468,462.133z"/>
</g>
</svg>
