<svg width="80" height="80" version="1.1" id="Layer_1" xmlns="http://www.w3.org/2000/svg" xmlns:xlink="http://www.w3.org/1999/xlink" x="0px" y="0px"
	 viewBox="0 0 512 512" style="enable-background:new 0 0 512 512;" xml:space="preserve">
<path style="fill:#C9E5FF;" d="M501.93,184.713C471.057,78.018,372.645,0,256,0C114.615,0,0,114.615,0,256
	c0,116.645,78.018,215.057,184.713,245.93L501.93,184.713z"/>
<path style="fill:#92CCFF;" d="M512,256c0-24.741-3.521-48.657-10.07-71.287L372.87,55.652L256,166.957L76.563,190.568
	l47.945,47.945l-74.892,33.013l136.348,136.348l-47.654,47.654l46.403,46.403C207.343,508.478,231.259,512,256,512
	C397.384,512,512,397.384,512,256z"/>
<polygon style="fill:#FFF3AD;" points="372.87,456.348 256,456.348 200.348,256 256,55.652 372.87,55.652 "/>
<rect x="139.13" y="55.652" style="fill:#FFFFFF;" width="116.87" height="400.696"/>
<path style="fill:#F72E12;" d="M256,77.913l-50.087,100.174L256,278.261c55.324,0,100.174-44.849,100.174-100.174
	S311.324,77.913,256,77.913z"/>
<path style="fill:#F8513A;" d="M155.826,178.087c0,55.325,44.85,100.174,100.174,100.174V77.913
	C200.675,77.913,155.826,122.762,155.826,178.087z"/>
<path style="fill:#FA7461;" d="M256,100.174l-38.957,77.913L256,256c43.03,0,77.913-34.883,77.913-77.913
	S299.03,100.174,256,100.174z"/>
<path style="fill:#FB9789;" d="M178.087,178.087C178.087,221.117,212.97,256,256,256V100.174
	C212.97,100.174,178.087,135.057,178.087,178.087z"/>
<path style="fill:#365F2C;" d="M244.12,178.882L256,228.969c18.143-7.602,33.391-29.886,33.391-50.087S274.143,136.397,256,128.795
	L244.12,178.882z"/>
<path style="fill:#63842C;" d="M222.609,178.882c0,20.201,15.249,42.485,33.391,50.087V128.795
	C237.857,136.397,222.609,158.681,222.609,178.882z"/>
<path style="fill:#FFE376;" d="M256,166.957l-33.391,66.783L256,300.522c36.883,0,66.783-29.9,66.783-66.783
	S292.883,166.957,256,166.957z"/>
<path style="fill:#FFF3AD;" d="M189.217,233.739c0,36.883,29.9,66.783,66.783,66.783V166.957
	C219.117,166.957,189.217,196.856,189.217,233.739z"/>
<path style="fill:#F72E12;" d="M256,211.478l-50.087,100.174L256,411.826c55.324,0,100.174-44.849,100.174-100.174
	S311.324,211.478,256,211.478z"/>
<path style="fill:#F8513A;" d="M155.826,311.652c0,55.325,44.85,100.174,100.174,100.174V211.478
	C200.675,211.478,155.826,256.327,155.826,311.652z"/>
<path style="fill:#FA7461;" d="M256,233.739l-38.957,77.913L256,389.565c43.03,0,77.913-34.883,77.913-77.913
	S299.03,233.739,256,233.739z"/>
<path style="fill:#FB9789;" d="M178.087,311.652c0,43.03,34.883,77.913,77.913,77.913V233.739
	C212.97,233.739,178.087,268.622,178.087,311.652z"/>
<path style="fill:#365F2C;" d="M244.12,312.447L256,362.534c18.143-7.602,33.391-29.886,33.391-50.087
	c0-20.201-15.249-42.485-33.391-50.087L244.12,312.447z"/>
<path style="fill:#63842C;" d="M222.609,312.447c0,20.201,15.249,42.485,33.391,50.087V262.36
	C237.857,269.962,222.609,292.246,222.609,312.447z"/>
<path style="fill:#FFE376;" d="M256,300.522l-33.391,66.783L256,434.087c36.883,0,66.783-29.9,66.783-66.783
	S292.883,300.522,256,300.522z"/>
<path style="fill:#FFF3AD;" d="M189.217,367.304c0,36.883,29.9,66.783,66.783,66.783V300.522
	C219.117,300.522,189.217,330.421,189.217,367.304z"/>
<g>
	<rect x="278.261" y="356.174" style="fill:#FFD23E;" width="22.261" height="22.261"/>
	<rect x="233.739" y="333.913" style="fill:#FFD23E;" width="22.261" height="22.261"/>
</g>
<path style="fill:#81982D;" d="M89.043,267.88L38.957,256c7.602-18.143,29.886-33.391,50.087-33.391S131.528,237.857,139.13,256
	L89.043,267.88z"/>
<path style="fill:#63842C;" d="M89.043,289.391c-20.201,0-42.485-15.249-50.087-33.391H139.13
	C131.528,274.143,109.244,289.391,89.043,289.391z"/>
<path style="fill:#365F2C;" d="M420.226,336.643l27.017,43.817c-18.204,7.453-44.744,2.479-59.028-11.806
	c-14.284-14.284-19.259-40.824-11.806-59.028L420.226,336.643z"/>
<path style="fill:#63842C;" d="M435.437,321.432c14.284,14.284,19.259,40.824,11.806,59.028l-70.834-70.834
	C394.614,302.173,421.153,307.148,435.437,321.432z"/>
<path style="fill:#81982D;" d="M91.774,175.357l-27.017-43.817c18.204-7.453,44.744-2.479,59.028,11.806
	c14.284,14.285,19.259,40.824,11.806,59.028L91.774,175.357z"/>
<path style="fill:#63842C;" d="M76.563,190.568c-14.285-14.284-19.259-40.823-11.806-59.028l70.834,70.834
	C117.386,209.827,90.847,204.851,76.563,190.568z"/>
<path style="fill:#365F2C;" d="M422.957,244.12L473.043,256c-7.602,18.143-29.886,33.391-50.087,33.391
	c-20.201,0-42.485-15.249-50.087-33.391L422.957,244.12z"/>
<path style="fill:#63842C;" d="M422.957,222.609c20.201,0,42.485,15.249,50.087,33.391H372.87
	C380.472,237.857,402.756,222.609,422.957,222.609z"/>
<g>
</g>
<g>
</g>
<g>
</g>
<g>
</g>
<g>
</g>
<g>
</g>
<g>
</g>
<g>
</g>
<g>
</g>
<g>
</g>
<g>
</g>
<g>
</g>
<g>
</g>
<g>
</g>
<g>
</g>
</svg>
